# xmcd
#
# Track frame offsets: 
#        150
#        17991
#        35667
#        52556
#        71906
#        93410
#        112826
#        126677
#        142583
#        159565
#        174398
#        191858
#        210109
#
# Disc length: 2975 seconds
#
# Revision: 0
# Processed by: cddbd v1.5.2PL0 Copyright (c) Steve Scherf et al.
# Submitted via: ExactAudioCopyFreeDBPlugin 1.0
#
DISCID=ad0b9d0d
DTITLE=Nimo and Capo - Capimo
DYEAR=2019
DGENRE=No, thanks.
TTITLE0=Planlos
TTITLE1=Another Day Another Date
TTITLE2=Mon Chéri
TTITLE3=Roadrunner
TTITLE4=Shem Shem and Sex
TTITLE5=Leyla
TTITLE6=Anderes Niveau
TTITLE7=Billie Jean
TTITLE8=Lean
TTITLE9=Wieviele Jahre
TTITLE10=Zoey
TTITLE11=Mamacita
TTITLE12=Dunkel
EXTD=
EXTT0=
EXTT1=
EXTT2=
EXTT3=
EXTT4=
EXTT5=
EXTT6=
EXTT7=
EXTT8=
EXTT9=
EXTT10=
EXTT11=
EXTT12=
PLAYORDER=
